PathFileType	4	(X/Y/Z)	C:\Users\WrightLab\Desktop\Jo\P2_Trial13.trc
DataRate	CameraRate	NumFrames	NumMarkers	Units	OrigDataRate	OrigDataStartFrame	OrigNumFrames
100.00	100.00	       9	19	mm	100.00	213	       567
Frame#	Time	Headset_Front			Headset_Back			Headset_Left			Headset_Right			Left_Shoulder			Right_Shoulder			Sternum			C7			Left Elbow			Right Elbow			Left Wrist			Right Wrist			Left ASIS			Right ASIS			S2			Left Knee			Right Knee			Left Ankle			Right Ankle			
		X1	Y1	Z1	X2	Y2	Z2	X3	Y3	Z3	X4	Y4	Z4	X5	Y5	Z5	X6	Y6	Z6	X7	Y7	Z7	X8	Y8	Z8	X9	Y9	Z9	X10	Y10	Z10	X11	Y11	Z11	X12	Y12	Z12	X13	Y13	Z13	X14	Y14	Z14	X15	Y15	Z15	X16	Y16	Z16	X17	Y17	Z17	X18	Y18	Z18	X19	Y19	Z19	

213	2.120	-382.24521	1429.72766	242.44144	-441.07013	1667.00476	50.64085	-314.30676	1551.73987	82.88596	-501.04642	1517.09863	214.16487	-334.54742	1421.76147	-72.77637	-601.65570	1418.96399	119.74397	-434.11447	1299.69263	73.31174	-547.09076	1416.45081	-56.86209	-282.08353	1077.09106	-198.71385	-700.75946	1117.27649	222.29947	-287.04288	840.09174	-255.79001	-659.36584	923.69763	382.01013	-398.18417	1014.06787	77.34122	-513.11340	1009.10437	139.24178	-573.78577	934.65405	-125.08498	-371.42896	445.65820	75.73418	-739.24866	544.44208	-28.08755	-408.86392	100.57018	139.58705	-852.45929	151.25081	-160.95381	
214	2.130	-374.74091	1430.55322	251.59007	-430.00723	1667.58838	61.08237	-305.12189	1552.77783	93.50845	-492.98074	1518.27539	222.32547	-325.20224	1422.48022	-64.60697	-592.38501	1419.98254	128.53873	-425.17654	1301.44043	82.63199	-538.06592	1418.17395	-48.87349	-274.17975	1076.99866	-189.17386	-691.29626	1117.05225	227.90445	-279.60318	840.67120	-248.19431	-650.55365	921.72382	385.42831	-389.32831	1014.94275	86.78739	-503.53061	1009.96979	150.34117	-565.89331	935.88940	-115.21494	-363.98972	440.19647	79.75246	-735.17377	546.75787	-16.61668	-405.89212	98.26392	141.29617	-850.65704	158.35056	-155.84807	
215	2.140	-366.94135	1431.63745	260.97858	-419.48514	1668.61450	71.00487	-295.40530	1553.49792	105.50134	-484.11703	1520.36145	231.21532	-315.48026	1422.77795	-55.88102	-583.14160	1421.93579	137.52255	-416.30588	1303.40344	91.90121	-527.50879	1418.31335	-39.22555	-265.46783	1076.69397	-178.83031	-682.72760	1118.06421	233.85078	-272.20309	839.91254	-236.19258	-641.87396	920.19958	388.84854	-379.91299	1014.86401	95.81093	-494.76257	1010.94263	159.23770	-557.70532	937.63098	-106.22077	-357.15775	436.80206	83.07791	-731.37579	549.52271	-5.63467	-403.20651	95.78409	141.41019	-849.14905	164.65897	-149.40297	
216	2.150	-360.25632	1433.24927	270.61691	-409.73294	1670.59314	80.09790	-286.26477	1555.45093	112.87431	-475.38501	1522.08997	239.52560	-306.21762	1424.17310	-46.93961	-574.10083	1423.83301	146.67183	-406.80872	1304.98071	101.02836	-517.94617	1420.12866	-30.17362	-256.22375	1077.00293	-169.03502	-674.03107	1118.48523	239.49249	-263.27371	839.80292	-228.78728	-633.69263	919.19550	391.36035	-370.87030	1015.72473	104.99019	-486.31116	1011.25836	167.47157	-549.28302	939.34717	-97.13902	-350.39636	435.52356	85.63773	-725.58124	551.07532	6.72292	-402.54050	94.04876	144.03445	-847.12207	171.47888	-142.35851	
217	2.160	-351.73853	1434.70276	279.67801	-400.34778	1672.26904	88.68906	-276.13156	1555.82617	125.44790	-467.27319	1523.99890	248.18791	-297.56805	1425.28906	-38.78258	-564.42200	1425.52014	155.45447	-398.04895	1306.37671	110.36606	-508.21808	1421.40381	-21.26807	-247.73071	1077.58472	-159.40727	-665.15039	1119.08643	244.82683	-256.38950	840.12610	-213.11029	-624.75903	917.19910	393.60953	-361.82495	1015.81335	113.62493	-476.92191	1011.72827	176.89000	-540.94031	941.27740	-88.26366	-342.47626	435.92584	88.91939	-718.93848	553.67224	18.68487	-401.48633	94.77029	143.29053	-844.47656	178.85901	-133.23761	
218	2.170	-342.90054	1435.80042	288.36951	-389.76309	1673.71350	97.01965	-267.41769	1557.70679	131.72002	-458.98840	1525.42346	256.11530	-288.32022	1426.58252	-29.56429	-554.87701	1426.90674	164.53418	-388.72769	1307.34485	118.80754	-499.53818	1423.04077	-12.64512	-238.76317	1078.61426	-149.01767	-655.89282	1119.47559	249.68253	-247.43979	842.07391	-206.98656	-617.03644	915.64301	396.29459	-352.76871	1016.56610	122.05090	-467.38586	1012.46265	185.24388	-533.31287	942.50598	-79.06425	-333.10315	438.32904	91.47266	-710.42993	555.21375	32.72138	-400.83984	95.29644	142.85135	-839.81683	186.42493	-121.81747	
219	2.180	-335.04623	1437.38245	297.57675	-381.69846	1674.50574	104.93008	-257.57813	1557.92114	143.48889	-451.35300	1526.63037	263.78421	-279.96194	1428.35376	-21.72190	-545.73578	1428.49756	173.84602	-380.00812	1309.21191	128.47330	-490.87012	1424.36023	-3.73784	-229.27844	1079.76099	-138.46713	-647.35931	1119.57495	255.26936	-238.01060	841.54700	-190.10330	-609.27191	914.49585	398.70953	-343.91183	1017.98218	129.18008	-457.71133	1013.62286	193.95265	-527.85809	945.68176	-73.80713	-324.73099	439.68558	95.00055	-702.02557	557.98914	47.97939	-400.42331	95.66931	142.57524	-832.70251	196.07552	-109.50314	
220	2.190	-327.52213	1439.19226	307.05621	-371.15918	1674.73938	112.41778	-248.81934	1558.90259	152.82172	-443.08170	1527.56091	271.40579	-271.05753	1430.31433	-14.01484	-536.48718	1429.61841	182.91440	-370.19699	1310.14697	136.52371	-482.21225	1425.52466	5.81885	-220.68544	1080.98755	-128.53970	-640.03778	1119.87439	260.38043	-228.63275	843.17365	-184.01790	-602.24451	913.10559	401.15689	-334.94504	1019.65411	137.16296	-448.30334	1014.49896	200.76605	-519.50549	945.46313	-63.20490	-316.96133	441.01129	99.43441	-690.03510	558.80469	64.38570	-400.02246	95.98982	142.30177	-824.22418	205.68564	-95.42281	
221	2.200	-320.05280	1440.85730	316.27866	-363.39642	1675.81470	120.17858	-239.92810	1559.45630	162.42155	-434.76639	1528.59509	279.06793	-263.03922	1431.87073	-5.74809	-527.20959	1430.53479	191.61723	-360.81415	1311.16125	144.61383	-474.51260	1427.23303	13.04989	-210.70183	1081.79480	-118.78941	-631.72791	1119.97107	266.14157	-217.33649	842.25421	-170.70338	-594.63251	911.06299	402.65759	-326.69125	1020.96350	143.22357	-438.92001	1016.32965	209.89700	-512.47693	945.84314	-53.70617	-308.70175	440.61774	103.84523	-677.65076	559.59521	81.25990	-399.49472	96.24261	141.90726	-814.33276	215.07903	-80.53920	
